<svg xmlns="http://www.w3.org/2000/svg" width="26.566" height="25" viewBox="0 0 26.566 25">
  <path id="Path_1183" data-name="Path 1183" d="M26.566,24.4V16.589h-12.5V24.4h3.907v1.563H12.5v-1.25a5.636,5.636,0,0,0-1.557-4.393,3.661,3.661,0,0,0-.546-.413,3.125,3.125,0,1,0-5.167,0,3.688,3.688,0,0,0-.55.417,5.638,5.638,0,0,0-1.556,4.385v1.25H0v1.563H1.563v12.5H25v-12.5h1.563V25.965H22.659V24.4ZM15.627,18.151H25v4.688H15.627Zm-7.813-1.56a1.563,1.563,0,1,1-1.563,1.563A1.564,1.564,0,0,1,7.813,16.592ZM4.688,24.715c0-3.118,1.575-3.627,1.877-3.7a3.116,3.116,0,0,0,2.5,0,1.887,1.887,0,0,1,.827.458,4.3,4.3,0,0,1,1.048,3.239v1.25H4.688ZM23.44,38.466H3.125V27.527H23.44ZM21.1,25.965H19.534V24.4H21.1Z" transform="translate(0 -15.029)" fill="#fff"/>
</svg>
