<svg id="asset_tracking_location_icon" data-name="asset tracking (location) icon" xmlns="http://www.w3.org/2000/svg" width="19.541" height="25" viewBox="0 0 19.541 25">
  <path id="Path_555" data-name="Path 555" d="M9.713,0A9.653,9.653,0,0,0,0,9.57a9.336,9.336,0,0,0,1.737,5.435l.014.019,6.473,8.51H5.23A.733.733,0,1,0,5.23,25H14.2a.733.733,0,1,0,0-1.465H11.2l6.473-8.51.014-.019A9.336,9.336,0,0,0,19.426,9.57,9.653,9.653,0,0,0,9.713,0ZM16.47,14.159,9.713,23.042,2.957,14.159A7.9,7.9,0,0,1,1.494,9.57a8.22,8.22,0,0,1,16.438,0,7.9,7.9,0,0,1-1.462,4.589Zm0,0" fill="#fff"/>
  <path id="Path_556" data-name="Path 556" d="M75.6,66.307a.713.713,0,0,0-.081-.576L73.892,63.1a.849.849,0,0,0-1.114-.278l-1.2.648a5.775,5.775,0,0,0-.775-.419V61.759A.789.789,0,0,0,69.983,61H66.722a.789.789,0,0,0-.815.759v1.293a5.792,5.792,0,0,0-.775.419l-1.2-.648a.849.849,0,0,0-1.114.278l-1.631,2.63a.732.732,0,0,0,.3,1.037l1.186.638a4.2,4.2,0,0,0,0,.853l-1.186.638a.732.732,0,0,0-.3,1.037l1.631,2.63a.849.849,0,0,0,1.114.278l1.2-.648a5.779,5.779,0,0,0,.775.419V73.9a.789.789,0,0,0,.815.759h3.261A.789.789,0,0,0,70.8,73.9V72.612a5.774,5.774,0,0,0,.775-.419l1.2.648a.85.85,0,0,0,1.114-.278l1.631-2.63a.732.732,0,0,0-.3-1.037l-1.186-.638a4.214,4.214,0,0,0,0-.853l1.186-.638A.769.769,0,0,0,75.6,66.307Zm-3.251.835a3.167,3.167,0,0,1,0,1.38.741.741,0,0,0,.394.8l.956.514-.815,1.315-.97-.522a.864.864,0,0,0-.937.08,4.129,4.129,0,0,1-1.271.687.764.764,0,0,0-.541.715v1.039H67.538V72.107A.765.765,0,0,0,67,71.392a4.127,4.127,0,0,1-1.271-.687.864.864,0,0,0-.937-.08l-.97.522L63,69.832l.956-.514a.742.742,0,0,0,.394-.8,3.164,3.164,0,0,1,0-1.38.742.742,0,0,0-.394-.8L63,65.832l.815-1.315.97.522a.864.864,0,0,0,.937-.08A4.127,4.127,0,0,1,67,64.272a.764.764,0,0,0,.542-.715V62.518h1.631v1.039a.764.764,0,0,0,.541.715,4.127,4.127,0,0,1,1.271.687.864.864,0,0,0,.937.08l.97-.522.815,1.315-.956.514a.742.742,0,0,0-.394.8Zm0,0" transform="translate(-58.64 -58.569)" fill="#fff"/>
  <path id="Path_557" data-name="Path 557" d="M151.793,151a1.793,1.793,0,1,0,1.793,1.793A1.8,1.8,0,0,0,151.793,151Zm0,2.391a.6.6,0,1,1,.6-.6A.6.6,0,0,1,151.793,153.391Zm0,0" transform="translate(-142.08 -143.338)" fill="#fff"/>
</svg>
