<svg id="Component_41_12" data-name="Component 41 – 12" xmlns="http://www.w3.org/2000/svg" width="21" height="25" viewBox="0 0 21 25">
  <path id="Path_568" data-name="Path 568" d="M72.013,1.444V0H60.987V1.444H56V25H77V1.444Zm-9.45.021h7.875V2.909H62.562Zm12.863,22.07H57.575V2.909h3.412V4.374H72.013V2.909h3.413Z" transform="translate(-56)" fill="#fff"/>
  <g id="Path_1129" data-name="Path 1129" transform="translate(4.387 8.038)" fill="none">
    <path d="M11.734,4.956l-1.376-.339a4.544,4.544,0,0,0-.318-.756l.641-1.068a.352.352,0,0,0-.053-.429L9.633,1.37A.351.351,0,0,0,9.2,1.317l-1.07.641a4.529,4.529,0,0,0-.752-.315L7.044.266A.351.351,0,0,0,6.7,0H5.3a.351.351,0,0,0-.341.266s-.234.961-.338,1.376a4.513,4.513,0,0,0-.8.34L2.711,1.317a.353.353,0,0,0-.429.053l-.994.994a.352.352,0,0,0-.053.429L1.92,3.939a4.53,4.53,0,0,0-.277.677l-1.376.34A.351.351,0,0,0,0,5.3V6.7a.351.351,0,0,0,.266.341l1.377.339a4.535,4.535,0,0,0,.323.769L1.353,9.174a.352.352,0,0,0,.053.429L2.4,10.6a.353.353,0,0,0,.429.053l1.026-.615a4.529,4.529,0,0,0,.763.321l.338,1.376A.351.351,0,0,0,5.3,12H6.7a.351.351,0,0,0,.341-.266l.338-1.376a4.465,4.465,0,0,0,.78-.331l1.042.625a.352.352,0,0,0,.429-.053l.994-.994a.352.352,0,0,0,.053-.429l-.632-1.053a4.5,4.5,0,0,0,.309-.739l1.376-.339A.351.351,0,0,0,12,6.7V5.3A.351.351,0,0,0,11.734,4.956ZM6,8.461A2.461,2.461,0,1,1,8.461,6,2.464,2.464,0,0,1,6,8.461Z" stroke="none"/>
    <path d="M 5.296879768371582 0 L 6.703120231628418 0 C 6.864490032196045 0 7.004909992218018 0.1098699569702148 7.044069766998291 0.2664403915405273 L 7.382579803466797 1.642900466918945 C 7.641769886016846 1.724949836730957 7.893420219421387 1.830349922180176 8.134099960327148 1.957730293273926 L 9.203900337219238 1.316740036010742 C 9.260217666625977 1.282875061035156 9.322793960571289 1.266379356384277 9.384918212890625 1.266383171081543 C 9.475805282592773 1.266387939453125 9.565696716308594 1.301708221435547 9.633399963378906 1.369620323181152 L 10.62765979766846 2.363880157470703 C 10.74164009094238 2.477860450744629 10.76362037658691 2.655019760131836 10.68054008483887 2.793370246887207 C 10.68054008483887 2.793370246887207 10.24621963500977 3.517430305480957 10.03954982757568 3.8614501953125 C 10.16796016693115 4.103479862213135 10.27439022064209 4.356520175933838 10.35713005065918 4.61745023727417 L 11.7335901260376 4.955949783325195 C 11.89015007019043 4.995090007781982 12 5.135509967803955 12 5.296879768371582 L 12 6.703120231628418 C 12 6.864490032196045 11.89015007019043 7.004909992218018 11.73355960845947 7.044050216674805 L 10.35709953308105 7.38254976272583 C 10.27643013000488 7.63730001449585 10.17306995391846 7.884819984436035 10.0484504699707 8.121370315551758 L 10.68052005767822 9.174349784851074 C 10.76360034942627 9.312700271606445 10.74162006378174 9.489870071411133 10.62763977050781 9.603839874267578 L 9.633369445800781 10.59811019897461 C 9.565713882446289 10.66597938537598 9.475801467895508 10.70105457305908 9.384944915771484 10.70105457305908 C 9.322748184204102 10.70105457305908 9.260101318359375 10.68460941314697 9.203880310058594 10.6509895324707 C 9.203880310058594 10.6509895324707 8.508660316467285 10.2338399887085 8.162250518798828 10.0261402130127 C 7.91402006149292 10.160719871521 7.653120040893555 10.27163028717041 7.382229804992676 10.35745048522949 L 7.044050216674805 11.7335901260376 C 7.004909992218018 11.8901195526123 6.864490032196045 12 6.703120231628418 12 L 5.296879768371582 12 C 5.135509967803955 12 4.994740009307861 11.89015007019043 4.955979824066162 11.73355960845947 L 4.617800235748291 10.35742950439453 C 4.354450225830078 10.27400970458984 4.099030017852783 10.16656017303467 3.85492992401123 10.03643035888672 C 3.517780303955078 10.23832035064697 2.82942008972168 10.6509895324707 2.82942008972168 10.6509895324707 C 2.773166656494141 10.684401512146 2.710604667663574 10.70070457458496 2.648504257202148 10.70070457458496 C 2.557490348815918 10.70070457458496 2.467486381530762 10.66566562652588 2.399930000305176 10.59811019897461 L 1.405659675598145 9.603839874267578 C 1.291689872741699 9.489870071411133 1.269700050354004 9.312700271606445 1.352789878845215 9.174349784851074 L 1.966640472412109 8.151260375976563 C 1.835129737854004 7.904409885406494 1.726659774780273 7.647260189056396 1.643230438232422 7.38254976272583 L 0.2664098739624023 7.044050216674805 C 0.1098699569702148 7.005259990692139 0 6.864490032196045 0 6.703120231628418 L 0 5.296879768371582 C 0 5.135509967803955 0.1098699569702148 4.995090007781982 0.2664403915405273 4.955949783325195 L 1.642900466918945 4.616409778594971 C 1.716699600219727 4.383979797363281 1.809399604797363 4.157060146331787 1.919949531555176 3.93904972076416 L 1.233980178833008 2.793370246887207 C 1.150899887084961 2.655019760131836 1.172880172729492 2.477860450744629 1.286860466003418 2.363880157470703 L 2.281120300292969 1.369620323181152 C 2.349031448364258 1.301916122436523 2.438838958740234 1.26692008972168 2.529660224914551 1.26692008972168 C 2.591737747192383 1.26692008972168 2.654302597045898 1.283285140991211 2.710619926452637 1.316740036010742 L 3.819890022277832 1.982439994812012 C 4.074299812316895 1.843729972839355 4.341400146484375 1.730090141296387 4.617770195007324 1.642550468444824 C 4.721459865570068 1.227120399475098 4.955949783325195 0.2664098739624023 4.955949783325195 0.2664098739624023 C 4.994740009307861 0.1098699569702148 5.135509967803955 0 5.296879768371582 0 Z M 6 8.460939407348633 C 7.356820106506348 8.460939407348633 8.460939407348633 7.356820106506348 8.460939407348633 6 C 8.460939407348633 4.643179893493652 7.356820106506348 3.539059638977051 6 3.539059638977051 C 4.643179893493652 3.539059638977051 3.539059638977051 4.643179893493652 3.539059638977051 6 C 3.539059638977051 7.356820106506348 4.643179893493652 8.460939407348633 6 8.460939407348633 Z" stroke="none" fill="#fff"/>
  </g>
</svg>
