<svg id="Assets_Icon" data-name="Assets Icon" xmlns="http://www.w3.org/2000/svg" width="21" height="25" viewBox="0 0 21 25">
  <path id="Path_568" data-name="Path 568" d="M72.013,1.444V0H60.987V1.444H56V25H77V1.444Zm-9.45.021h7.875V2.909H62.562Zm12.863,22.07H57.575V2.909h3.412V4.374H72.013V2.909h3.413Z" transform="translate(-56)" fill="#fff"/>
  <path id="Path_569" data-name="Path 569" d="M121.034,124.578H116v5.034h5.034Zm-1.678,3.356h-1.678v-1.678h1.678Z" transform="translate(-112.469 -119.578)" fill="#fff"/>
  <path id="Path_570" data-name="Path 570" d="M255.875,154.578h7.63v1.634h-7.63Z" transform="translate(-244.688 -147.578)" fill="#fff"/>
  <path id="Path_571" data-name="Path 571" d="M121.034,248.578H116v5.034h5.034Zm-1.678,3.356h-1.678v-1.678h1.678Z" transform="translate(-112.469 -237.578)" fill="#fff"/>
  <path id="Path_572" data-name="Path 572" d="M255.875,278.578h7.63v1.634h-7.63Z" transform="translate(-244.687 -265.578)" fill="#fff"/>
  <path id="Path_573" data-name="Path 573" d="M255.875,400.578h7.63v1.634h-7.63Z" transform="translate(-244.688 -381.578)" fill="#fff"/>
  <path id="Path_574" data-name="Path 574" d="M110.419,373.686l-.967-1.186-1.058,1.3,2.025,2.482,3.271-4.01-1.058-1.3Z" transform="translate(-105.429 -353.951)" fill="#fff"/>
</svg>
