<svg xmlns="http://www.w3.org/2000/svg" width="25.805" height="26" viewBox="0 0 25.805 26">
  <g id="Audit_Icon" data-name="Audit Icon" transform="translate(0.638 0.5)">
    <path id="Path_685" data-name="Path 685" d="M28.621,4H15.286a.581.581,0,0,0-.12.027h-.04A.475.475,0,0,0,15,4.111L9.678,9.435a.475.475,0,0,0-.084.124V9.6a.581.581,0,0,0-.027.12V21.342L4.918,25.969A1.776,1.776,0,0,0,7.429,28.48l2.116-2.116v.705a.444.444,0,0,0,.444.444H28.621a.444.444,0,0,0,.444-.444V4.444A.444.444,0,0,0,28.621,4ZM14.869,5.513V9.324H11.058ZM6.8,27.854a.914.914,0,0,1-1.255,0,.887.887,0,0,1,0-1.255l4.76-4.756,1.9-1.908a5.927,5.927,0,0,0,.8,1.007,4.37,4.37,0,0,0,.368.333l-3.7,3.7Zm6.836-7.542a4.88,4.88,0,1,1,6.9,0,4.88,4.88,0,0,1-6.9,0Zm14.986,6.3-.444.627L10.16,27.069V25.79L14.11,21.8a5.767,5.767,0,1,0-2.347-2.688l-1.775,1.2v-10.1h5.324a.444.444,0,0,0,.444-.444V4.444H28.621Z" transform="translate(-4.398 -4)" fill="#fff" stroke="#fff" stroke-width="1"/>
    <path id="Path_689" data-name="Path 689" d="M46.615,47h-4.26a.355.355,0,1,0,0,.71h4.26a.355.355,0,0,0,0-.71Z" transform="translate(-23.722 -27.784)" fill="#fff"/>
    <path id="Path_690" data-name="Path 690" d="M49.195,42h-2.84a.355.355,0,0,0,0,.71h2.84a.355.355,0,1,0,0-.71Z" transform="translate(-26.302 -25.018)" fill="#fff"/>
    <path id="Path_693" data-name="Path 693" d="M49.84,37H47.355a.355.355,0,1,0,0,.71H49.84a.355.355,0,0,0,0-.71Z" transform="translate(-26.947 -22.253)" fill="#fff"/>
    <path id="Path_694" data-name="Path 694" d="M45.97,17H41.355a.355.355,0,0,0,0,.71H45.97a.355.355,0,0,0,0-.71Z" transform="translate(-23.077 -11.191)" fill="#fff"/>
    <path id="Path_695" data-name="Path 695" d="M34.355,12.71h7.1a.355.355,0,1,0,0-.71h-7.1a.355.355,0,1,0,0,.71Z" transform="translate(-18.562 -9.16)" fill="#fff"/>
    <path id="Path_696" data-name="Path 696" d="M49.195,22h-2.84a.355.355,0,0,0,0,.71h2.84a.355.355,0,1,0,0-.71Z" transform="translate(-26.302 -13.956)" fill="#fff"/>
  </g>
</svg>
