<svg xmlns="http://www.w3.org/2000/svg" width="23" height="23" viewBox="0 0 23 23">
  <path id="repair_2_empty" data-name="repair 2 empty" d="M20.214,12.858a8.773,8.773,0,0,0,.1-1.023l1.693-.493a.674.674,0,0,0,.458-.835l-1.13-3.881a.674.674,0,0,0-.835-.458l-1.651.481a8.745,8.745,0,0,0-2.688-2.6l.41-1.676a.674.674,0,0,0-.494-.815L12.151.6a.674.674,0,0,0-.815.494l-.411,1.676c-.25.018-.5.048-.747.087A5.414,5.414,0,0,0,3.555.326.674.674,0,0,0,3.31,1.435L5.623,3.748,3.7,5.666,1.414,3.375A.674.674,0,0,0,.3,3.629,5.413,5.413,0,0,0,2.9,10.2a8.778,8.778,0,0,0-.1,1.076l-1.765.514a.674.674,0,0,0-.458.835l1.13,3.881a.674.674,0,0,0,.835.458l1.782-.519A8.755,8.755,0,0,0,6.92,18.936l-.446,1.821a.674.674,0,0,0,.494.815c4.238,1.038,3.971.981,4.087.981a.674.674,0,0,0,.654-.514l.439-1.793c.231-.015.461-.041.69-.075A5.413,5.413,0,0,0,19.369,22.7a.674.674,0,0,0,.255-1.113l-2.291-2.291,1.918-1.918,2.313,2.313a.674.674,0,0,0,1.109-.245,5.413,5.413,0,0,0-2.458-6.584ZM11.468,4.093a.674.674,0,0,0,.647-.513l.371-1.513,2.618.641-.371,1.513a.674.674,0,0,0,.336.754,7.4,7.4,0,0,1,2.9,2.8.674.674,0,0,0,.771.308l1.494-.435.754,2.587-1.527.445a.674.674,0,0,0-.485.662,7.365,7.365,0,0,1-.047,1A5.414,5.414,0,0,0,17.07,12.2,5.617,5.617,0,0,0,10.8,5.927a5.413,5.413,0,0,0-.124-1.781,7.349,7.349,0,0,1,.8-.053Zm4.275,7.869L11.036,7.256A4.269,4.269,0,0,1,15.742,11.962Zm-4.132,6.956a.674.674,0,0,0-.65.513l-.4,1.633-2.618-.641.405-1.655a.674.674,0,0,0-.333-.752,7.4,7.4,0,0,1-2.814-2.7.674.674,0,0,0-.767-.3l-1.619.471-.754-2.587,1.605-.468a.674.674,0,0,0,.485-.669,7.393,7.393,0,0,1,.043-1.076,5.434,5.434,0,0,0,1.734.113A5.618,5.618,0,0,0,12.2,17.069a5.424,5.424,0,0,0,.131,1.809c-.241.025-.483.039-.725.041Zm-4.361-7.8,4.633,4.633a4.27,4.27,0,0,1-4.633-4.633Zm14.393,6.746-1.916-1.916a.674.674,0,0,0-.953,0l-2.87,2.87a.674.674,0,0,0,0,.953l1.876,1.876a4.068,4.068,0,0,1-4.027-5.394.674.674,0,0,0-.16-.7L7.445,9.406a.674.674,0,0,0-.7-.16A4.068,4.068,0,0,1,1.353,5.22L3.229,7.1a.674.674,0,0,0,.953,0l2.87-2.87a.674.674,0,0,0,0-.953L5.136,1.356A4.068,4.068,0,0,1,9.228,6.8a.674.674,0,0,0,.156.707l6.1,6.1a.674.674,0,0,0,.707.157A4.068,4.068,0,0,1,21.642,17.862Z" transform="translate(0 0.002)" fill="#fff"/>
</svg>
