<svg id="Dashboard_icon" data-name="Dashboard icon" xmlns="http://www.w3.org/2000/svg" width="22.5" height="25" viewBox="0 0 22.5 25">
  <g id="Dashboard_icon-2" data-name="Dashboard icon" transform="translate(-4.5 -4.5)" fill="none">
    <path d="M4.5,18.389h10V4.5H4.5ZM4.5,29.5h10V21.167H4.5Zm12.5,0H27V15.611H17Zm0-25v8.333H27V4.5Z" stroke="none"/>
    <path d="M 25.5 28 L 25.5 17.11111068725586 L 18.5 17.11111068725586 L 18.5 28 L 25.5 28 M 12.99999904632568 28 L 12.99999904632568 22.66666984558105 L 5.999999046325684 22.66666984558105 L 5.999999046325684 28 L 12.99999904632568 28 M 12.99999904632568 16.88888931274414 L 12.99999904632568 10.96992015838623 L 12.99999904632568 6 L 5.999999046325684 6 L 5.999999046325684 16.88888931274414 L 12.99999904632568 16.88888931274414 M 25.5 11.33333015441895 L 25.5 6 L 18.5 6 L 18.5 11.33333015441895 L 25.5 11.33333015441895 M 27 29.5 L 17 29.5 L 17 15.61110973358154 L 27 15.61110973358154 L 27 29.5 Z M 14.49999904632568 29.5 L 4.499999046325684 29.5 L 4.499999046325684 21.16666984558105 L 14.49999904632568 21.16666984558105 L 14.49999904632568 29.5 Z M 14.49999904632568 18.38888931274414 L 4.499999046325684 18.38888931274414 L 4.499999046325684 4.5 L 14.49999904632568 4.5 L 14.49999904632568 10.96992015838623 L 14.49999904632568 18.38888931274414 Z M 27 12.83333015441895 L 17 12.83333015441895 L 17 4.5 L 27 4.5 L 27 12.83333015441895 Z" stroke="none" fill="#fff"/>
  </g>
</svg>
