<svg id="Finance_Icon" data-name="Finance Icon" xmlns="http://www.w3.org/2000/svg" width="18.78" height="25" viewBox="0 0 18.78 25">
  <path id="Path_790" data-name="Path 790" d="M24.176.527H11.79c-1.5,0-3.19,1.158-3.19,2.655v19.81c0,1.5,1.694,2.535,3.19,2.535H24.176c1.5,0,3.2-1.039,3.2-2.535V3.182c0-1.5-1.706-2.655-3.2-2.655Zm1.935,21.857a1.935,1.935,0,0,1-1.935,1.935H11.79a1.935,1.935,0,0,1-1.935-1.935V3.8A1.935,1.935,0,0,1,11.79,1.869H24.176A1.935,1.935,0,0,1,26.112,3.8Z" transform="translate(-8.599 -0.527)" fill="#fff"/>
  <path id="Path_791" data-name="Path 791" d="M37.326,6.652h.326a.326.326,0,1,0,0-.652h-.326a.326.326,0,1,0,0,.652Z" transform="translate(-25.564 -3.897)" fill="#fff"/>
  <path id="Path_792" data-name="Path 792" d="M27.815,6h-1.24c-.228,0-.491.343-.491.523a.573.573,0,0,0,.491.455h1.411c.228,0,0-.117,0,.063V9.168a.408.408,0,0,1-.364.419H16.463a.412.412,0,0,1-.369-.419V6.978h6.921c.228,0,.357-.275.357-.455A.677.677,0,0,0,22.854,6H16.24A1.133,1.133,0,0,0,15,6.978V9.587a1.133,1.133,0,0,0,1.24.978H27.815a1.133,1.133,0,0,0,1.24-.978V6.978A1.133,1.133,0,0,0,27.815,6Z" transform="translate(-12.643 -3.897)" fill="#fff"/>
  <path id="Path_793" data-name="Path 793" d="M17.578,23H16.105A1.105,1.105,0,0,0,15,24.105v1.473a1.105,1.105,0,0,0,1.105,1.105h1.473a1.105,1.105,0,0,0,1.105-1.105V24.105A1.105,1.105,0,0,0,17.578,23Zm.368,2.578a.368.368,0,0,1-.368.368H16.105a.368.368,0,0,1-.368-.368V24.105a.368.368,0,0,1,.368-.368h1.473a.368.368,0,0,1,.368.368Z" transform="translate(-12.643 -14.077)" fill="#fff" stroke="#fff" stroke-width="0.2"/>
  <path id="Path_794" data-name="Path 794" d="M29.579,23H28.105A1.105,1.105,0,0,0,27,24.105v1.473a1.105,1.105,0,0,0,1.105,1.105h1.473a1.105,1.105,0,0,0,1.105-1.105V24.105A1.105,1.105,0,0,0,29.579,23Zm.368,2.579a.368.368,0,0,1-.368.368H28.105a.368.368,0,0,1-.368-.368V24.105a.368.368,0,0,1,.368-.368h1.473a.368.368,0,0,1,.368.368Z" transform="translate(-19.247 -14.077)" fill="#fff" stroke="#fff" stroke-width="0.2"/>
  <path id="Path_795" data-name="Path 795" d="M41.579,23H40.105A1.105,1.105,0,0,0,39,24.105v1.473a1.105,1.105,0,0,0,1.105,1.105h1.473a1.105,1.105,0,0,0,1.105-1.105V24.105A1.105,1.105,0,0,0,41.579,23Zm.368,2.579a.368.368,0,0,1-.368.368H40.105a.368.368,0,0,1-.368-.368V24.105a.368.368,0,0,1,.368-.368h1.473a.368.368,0,0,1,.368.368Z" transform="translate(-26.272 -14.077)" fill="#fff" stroke="#fff" stroke-width="0.2"/>
  <path id="Path_796" data-name="Path 796" d="M17.578,36H16.105A1.105,1.105,0,0,0,15,37.105v1.473a1.105,1.105,0,0,0,1.105,1.105h1.473a1.105,1.105,0,0,0,1.105-1.105V37.105A1.105,1.105,0,0,0,17.578,36Zm.368,2.578a.368.368,0,0,1-.368.368H16.105a.368.368,0,0,1-.368-.368V37.105a.368.368,0,0,1,.368-.368h1.473a.368.368,0,0,1,.368.368Z" transform="translate(-12.643 -21.9)" fill="#fff" stroke="#fff" stroke-width="0.2"/>
  <path id="Path_797" data-name="Path 797" d="M29.579,36H28.105A1.105,1.105,0,0,0,27,37.105v1.473a1.105,1.105,0,0,0,1.105,1.105h1.473a1.105,1.105,0,0,0,1.105-1.105V37.105A1.105,1.105,0,0,0,29.579,36Zm.368,2.579a.368.368,0,0,1-.368.368H28.105a.368.368,0,0,1-.368-.368V37.105a.368.368,0,0,1,.368-.368h1.473a.368.368,0,0,1,.368.368Z" transform="translate(-19.247 -21.9)" fill="#fff" stroke="#fff" stroke-width="0.2"/>
  <path id="Path_798" data-name="Path 798" d="M41.579,36H40.105A1.105,1.105,0,0,0,39,37.105v6.262a1.105,1.105,0,0,0,1.105,1.105h1.474a1.105,1.105,0,0,0,1.105-1.105V37.105A1.105,1.105,0,0,0,41.579,36Zm.25,7.228a.407.407,0,0,1-.353.424H40.222a.422.422,0,0,1-.371-.424V37.262a.388.388,0,0,1,.371-.388H41.4a.437.437,0,0,1,.424.388Z" transform="translate(-26.272 -21.139)" fill="#fff" stroke="#fff" stroke-width="0.2"/>
  <path id="Path_799" data-name="Path 799" d="M17.625,49h-1.5A1.125,1.125,0,0,0,15,50.125v1.5a1.125,1.125,0,0,0,1.125,1.125h1.5a1.125,1.125,0,0,0,1.125-1.125v-1.5A1.125,1.125,0,0,0,17.625,49ZM18,51.625a.375.375,0,0,1-.375.375h-1.5a.375.375,0,0,1-.375-.375v-1.5a.375.375,0,0,1,.375-.375h1.5a.375.375,0,0,1,.375.375Z" transform="translate(-12.643 -29.416)" fill="#fff" stroke="#fff" stroke-width="0.2"/>
  <path id="Path_800" data-name="Path 800" d="M29.579,49H28.105A1.105,1.105,0,0,0,27,50.105v1.473a1.105,1.105,0,0,0,1.105,1.105h1.473a1.105,1.105,0,0,0,1.105-1.105V50.105A1.105,1.105,0,0,0,29.579,49Zm.368,2.579a.368.368,0,0,1-.368.368H28.105a.368.368,0,0,1-.368-.368V50.105a.368.368,0,0,1,.368-.368h1.473a.368.368,0,0,1,.368.368Z" transform="translate(-19.247 -29.35)" fill="#fff" stroke="#fff" stroke-width="0.2"/>
</svg>
