<svg id="Ring_Bell" data-name="Ring Bell" xmlns="http://www.w3.org/2000/svg" width="37.111" height="34" viewBox="0 0 37.111 34">
  <g id="Alert" transform="translate(0 9)">
    <path id="Path_1" data-name="Path 1" d="M23.4,21.875H15.59a3.125,3.125,0,0,1-6.25,0H1.527A1.5,1.5,0,0,1,.121,20.781,1.668,1.668,0,0,1,.59,19.063a6.29,6.29,0,0,0,2.5-5V9.375a9.375,9.375,0,0,1,18.75,0v4.688a6.29,6.29,0,0,0,2.5,5,1.479,1.479,0,0,1,.469,1.719A1.5,1.5,0,0,1,23.4,21.875Z" transform="translate(-0.063)" fill="#5d6384" fill-rule="evenodd"/>
  </g>
  <g id="Path_283" data-name="Path 283" transform="translate(15.867)" fill="#e52825">
    <path d="M 10.6220703125 20.744140625 C 5.040740489959717 20.744140625 0.5000002980232239 16.20339965820313 0.5000002980232239 10.6220703125 C 0.5000002980232239 5.040740489959717 5.040740489959717 0.5000002980232239 10.6220703125 0.5000002980232239 C 16.20339965820313 0.5000002980232239 20.744140625 5.040740489959717 20.744140625 10.6220703125 C 20.744140625 16.20339965820313 16.20339965820313 20.744140625 10.6220703125 20.744140625 Z" stroke="none"/>
    <path d="M 10.6220703125 1 C 5.316440582275391 1 1 5.316440582275391 1 10.6220703125 C 1 15.92770004272461 5.316440582275391 20.244140625 10.6220703125 20.244140625 C 15.92770004272461 20.244140625 20.244140625 15.92770004272461 20.244140625 10.6220703125 C 20.244140625 5.316440582275391 15.92770004272461 1 10.6220703125 1 M 10.6220703125 0 C 16.48847961425781 0 21.244140625 4.755661010742188 21.244140625 10.6220703125 C 21.244140625 16.48847961425781 16.48847961425781 21.244140625 10.6220703125 21.244140625 C 4.755661010742188 21.244140625 0 16.48847961425781 0 10.6220703125 C 0 4.755661010742188 4.755661010742188 0 10.6220703125 0 Z" stroke="none" fill="#fff"/>
  </g>
  <text id="_9_" data-name="9+" transform="translate(26.111 15)" fill="#fbfbff" font-size="12" font-family="Poppins-Regular, Poppins"><tspan x="-7.878" y="0">9+</tspan></text>
</svg>
