<svg id="Reports_Icon" data-name="Reports Icon" xmlns="http://www.w3.org/2000/svg" width="19.991" height="25" viewBox="0 0 19.991 25">
  <g id="Group_687" data-name="Group 687">
    <path id="Path_723" data-name="Path 723" d="M110.078,106.807l4.607-3.568,1.95,1.752a.726.726,0,0,0,.93.034L121.473,102l-.1.864a.384.384,0,1,0,.762.093c.2-1.662.218-1.769.218-1.815a.384.384,0,0,0-.391-.391H120.12a.384.384,0,1,0,0,.767h.723l-3.72,2.881-1.95-1.752a.726.726,0,0,0-.93-.034l-4.634,3.589a.384.384,0,0,0,.47.607Z" transform="translate(-107.109 -94.941)" fill="#fff"/>
    <path id="Path_724" data-name="Path 724" d="M104.312,176.437h-.543v-5.856a.574.574,0,0,0-.927-.453l-.986.768a.521.521,0,0,0-.2.414v5.127h-1.234v-3.348a.524.524,0,0,0-.846-.414l-1.066.829a.521.521,0,0,0-.2.414v2.519H97.07v-4.5a.525.525,0,0,0-.837-.421l-1.066.793a.527.527,0,0,0-.211.421v1.05a.362.362,0,1,0,.724,0v-.95l.667-.5v4.1H95.68v-.96a.362.362,0,0,0-.724,0v.96H93.721v-1.914a.524.524,0,0,0-.848-.413l-1.066.836a.521.521,0,0,0-.2.413v1.078h-.544a.362.362,0,1,0,0,.724h13.249a.362.362,0,0,0,0-.724Zm-1.934-5.029.667-.519v5.549h-.667Z" transform="translate(-88.701 -160.006)" fill="#fff"/>
    <path id="Path_727" data-name="Path 727" d="M71.127,2.187h-.579V1.423A1.424,1.424,0,0,0,69.125,0H57.467a2.572,2.572,0,0,0-1.413.336c-.069.069.671-.828-3.262,3.105-.243.255-.234.929-.234,1.309v16.64a1.658,1.658,0,0,0,1.523,1.582H54.7v.6A1.424,1.424,0,0,0,56.118,25H71.127a1.424,1.424,0,0,0,1.423-1.423V3.609a1.424,1.424,0,0,0-1.423-1.423ZM56.663,1.251V3.494a.476.476,0,0,1-.475.475H53.945ZM71.377,22.813c0,.38.131,1.176-.25,1.176H56.66c-.38,0-.84-.031-.84-.411v-.6H69.16a1.642,1.642,0,0,0,1.6-1.484V20.034c0-.2-.52-.42-.723-.42s-.7.218-.7.42v1.357c-.117.176-.342.2-.723.2H54.785c-.38,0-.879-.166-.879-.547V5.239c0-.024-.061.023,2.441,0a1.549,1.549,0,0,0,1.6-1.27V1.251c.067-.007-1.158,0,11.055,0,.38,0,.332.287.332.668v16.4c0,.2.5.413.7.413s.723-.211.723-.413V3.442h.615a7.457,7.457,0,0,1,.088,1.777l-.088,17.594Z" transform="translate(-52.558)" fill="#fff"/>
  </g>
</svg>
