<svg xmlns="http://www.w3.org/2000/svg" width="17.172" height="23" viewBox="0 0 17.172 23">
  <g id="Group_2331" data-name="Group 2331" transform="translate(64.294 -175.706)">
    <path id="Path_1281" data-name="Path 1281" d="M283.371,279.219v-3.067l-1.175-.3-.025-.059.618-1.042-2.169-2.169-1.042.619-.059-.025-.3-1.174h-3.067l-.3,1.175-.059.025-1.042-.618-2.169,2.169.619,1.042-.025.059-1.174.3v3.067l1.175.3.025.059-.618,1.042,2.169,2.169,1.042-.618.059.025.3,1.174h3.067l.3-1.175.059-.025,1.042.618,2.169-2.169-.618-1.042.025-.059Zm-1.6,1.274-1.277,1.277-.868-.515-.2.093a4.051,4.051,0,0,1-.387.16l-.2.073-.249.978h-1.806l-.249-.978-.2-.073a3.816,3.816,0,0,1-.387-.16l-.2-.093-.868.515-1.277-1.277.515-.868-.093-.2a4.067,4.067,0,0,1-.16-.387l-.073-.2-.978-.249v-1.806l.978-.249.073-.2a3.829,3.829,0,0,1,.16-.387l.093-.2-.515-.868,1.277-1.277.868.515.2-.093a4.06,4.06,0,0,1,.387-.16l.2-.073.249-.978h1.806l.249.978.2.073a3.835,3.835,0,0,1,.387.16l.2.093.868-.515,1.277,1.277-.515.868.093.2a4.059,4.059,0,0,1,.16.387l.073.2.978.249v1.806l-.978.249-.073.2a3.821,3.821,0,0,1-.16.387l-.093.2Zm0,0" transform="translate(-333.294 -90.294)" fill="#fff"/>
    <path id="Path_1282" data-name="Path 1282" d="M322.819,320a2.819,2.819,0,1,0,2.819,2.819A2.823,2.823,0,0,0,322.819,320Zm0,4.934a2.115,2.115,0,1,1,2.115-2.115A2.117,2.117,0,0,1,322.819,324.934Zm0,0" transform="translate(-378.294 -135.294)" fill="#fff"/>
    <path id="Path_1285" data-name="Path 1285" d="M0,311H17.172V288H0Zm2.263-20.621H15.074v18.48H2.263Z" transform="translate(-64.294 -112.294)" fill="#fff"/>
  </g>
</svg>
