<svg id="Scheduled_Tasks_Icon" data-name="Scheduled Tasks Icon" xmlns="http://www.w3.org/2000/svg" width="25" height="25" viewBox="0 0 25 25">
  <path id="Path_678" data-name="Path 678" d="M22.314,2.93H20.557V2.2a2.2,2.2,0,1,0-4.395,0V2.93H8.838V2.2a2.2,2.2,0,1,0-4.395,0V2.93H2.686A2.689,2.689,0,0,0,0,5.615v16.7A2.689,2.689,0,0,0,2.686,25H22.314A2.689,2.689,0,0,0,25,22.314V5.615A2.689,2.689,0,0,0,22.314,2.93ZM17.627,2.2a.732.732,0,0,1,1.465,0v2.93a.732.732,0,0,1-1.465,0ZM5.908,2.2a.732.732,0,1,1,1.465,0v2.93a.732.732,0,1,1-1.465,0ZM1.465,5.615A1.222,1.222,0,0,1,2.686,4.395H4.443v.732a2.2,2.2,0,0,0,4.395,0V4.395h7.324v.732a2.2,2.2,0,0,0,4.395,0V4.395h1.758a1.222,1.222,0,0,1,1.221,1.221V8.887H1.465Zm22.07,16.7a1.222,1.222,0,0,1-1.221,1.221H2.686a1.222,1.222,0,0,1-1.221-1.221V10.352h22.07Z" fill="#ff6a00"/>
</svg>
